<svg xmlns="http://www.w3.org/2000/svg" width="1455.35" height="558.025" viewBox="0 0 1091.512 418.519"><path fill="#bd0014" fill-rule="evenodd" d="M741.048 71.866 717.368 45.5h-3.863v60.96h12.177V72.957l15.367 16.125 15.368-16.125-.086 33.504h12.175V45.5h-3.777zm35.602 34.595h13.605l2.348-6.465h19.902l2.438 6.465h13.516l-25.274-62.22h-1.258zm20.32-17.715 5.625-15.621 5.461 15.62zm81.282 14.02V76.402h-12.176v18.05c-1.09.169-2.266.337-3.36.337-23.172 0-24.265-35.856 0-36.692 6.383-.168 10.246 1.172 12.598 2.184l1.426-12.176c-1.09-.336-6.887-2.437-14.024-2.184-41.644 1.512-39.632 60.875 0 60.875 5.711 0 10.918-1.425 15.536-4.03m7.808 3.695h13.606l2.347-6.465h19.903l2.433 6.465h13.52l-25.274-62.22h-1.261zm20.32-17.715 5.625-15.621 5.461 15.62zm75.231 17.715v-12.09h-22.329c7.219-15.953 14.437-31.91 21.66-47.946h-36.356v11.672h18.473c-7.219 16.035-14.441 32.242-21.664 48.364zm24.269 0h11.922V79.425l21-33h-14.699l-12.262 20.657-12.257-20.657H984.97l20.91 33zm51.812-32.665 30.4 33.926h3.19V46.507h-12.09v33.922l-30.32-35.265h-3.19v61.297h12.01zm0 0"/><path fill-rule="evenodd" stroke="#fff" stroke-linejoin="round" stroke-miterlimit="10" stroke-width=".474" d="M117.798 293.926H57.904c-2.606 0-4.465 1.859-4.465 4.46v106.403c0 5.582 8.93 5.582 8.93 0V302.851h55.43c5.581 0 5.581-8.926 0-8.926zm24.555-106.032h-84.45c-2.605 0-4.464 1.86-4.464 4.094v53.2c0 2.233 1.86 4.464 4.465 4.464h59.894c5.582 0 5.582-8.93 0-8.93h-55.43v-44.27h79.985c5.582 0 5.582-8.558 0-8.558zM9.166 404.789v-261.54h133.186c5.582 0 5.582-8.554 0-8.554H4.702c-2.23 0-4.465 1.86-4.465 4.09v266.004c0 5.582 8.93 5.582 8.93 0zm190.316-179.793c2.727-2.774 23.215-27.696 23.215-27.696l-23.598 15.352.176-73.867c0-2.23-1.86-4.09-4.465-4.09-2.23 0-4.094 1.86-4.094 4.09v75.125c0 6.59-.964 21.18-.964 21.18m-23.06 106.128c15.267-13.742 25.77-18.355 25.77-18.355s.06-8.817.043-8.125c-.687 37.945-1.789 90.05-1.789 90.05 0 2.235 1.864 4.094 4.094 4.094h154.766c2.605 0 4.465-1.859 4.465-4.093 0-2.602-1.86-4.461-4.465-4.461H199.275V305.57c0-5.746.117-3.668.117-11.402"/><path fill-rule="evenodd" stroke="#fff" stroke-linejoin="round" stroke-miterlimit="10" stroke-width=".474" d="M243.548 245.578v106.011c0 2.235 2.23 4.094 4.465 4.094h101.563c2.605 0 4.465-1.86 4.465-4.094 0-2.605-1.86-4.464-4.465-4.464h-97.102v-89.73s15.95-28.013 36.762-53.474m-2.996-54.308c-16.684 7.598-33.977 17.234-33.977 17.234s.211 2.864.211-5.226v-22.836c0-2.23-2.23-4.09-4.46-4.09-2.235 0-4.466 1.86-4.466 4.09v46.898m226.567 141.352h39.066c2.602 0 4.461-1.86 4.461-4.09 0-.746 0-1.117-.37-1.863l-19.345-47.621c-1.117-2.602-3.347-3.72-5.953-2.602-1.86.742-2.976 3.348-2.234 5.578l17.488 42.414h-33.113c-2.23 0-4.461 1.86-4.461 4.094 0 2.23 2.23 4.09 4.46 4.09zm-27.903 75.151 8.93-21.578h77.012l8.93 21.578c1.113 2.602 3.347 3.348 5.578 2.602 2.234-.743 3.347-3.72 2.605-5.578l-10.047-24.184c-.37-1.488-1.86-2.606-4.09-2.606h-82.593c-1.86 0-3.72.747-4.09 2.606L434.4 399.21c-1.113 1.859 0 4.835 2.605 5.578 2.23.746 4.465 0 5.207-2.602zm-57.664 0 105.286-257.82 105.285 257.82c.746 2.602 3.347 3.348 5.582 2.602 2.23-.743 2.976-3.72 2.23-5.578L493.927 131.718c-1.488-3.722-6.699-4.093-8.187 0L376.736 399.211c-1.117 1.859 0 4.835 2.23 5.578 2.235.746 4.836 0 5.582-2.602zm360.129-152.905c17.485 0 31.621-13.024 31.621-30.508 0-17.855-14.136-30.879-31.62-30.879h-46.876c-5.582 0-5.582 8.559 0 8.559h46.875c12.649 0 23.067 9.3 23.067 22.32 0 12.648-10.418 22.32-23.067 22.32h-14.883c-2.601 0-4.464 1.864-4.464 4.094 0 2.234 1.863 4.094 4.465 4.094zm25.672 152.906-69.199-92.266c-1.488-1.859-4.094-2.234-5.953-1.117-1.117 1.117-1.86 2.606-1.488 3.723v92.262c0 2.234 1.859 4.465 4.093 4.465 2.23 0 4.461-2.231 4.461-4.465v-79.614l61.016 81.848c1.488 2.23 4.465 2.606 6.324 1.117 1.86-1.488 2.234-4.094.746-5.953zm-121.285 2.602v-261.54h100.078c41.668 0 74.406 34.227 74.406 75.524 0 40.926-32.738 75.152-74.406 75.152-2.234 0-4.094 1.86-4.094 4.461 0 1.118.371 2.235 1.118 2.98l81.847 105.657c1.86 2.23 4.465 2.606 6.324.742 1.86-1.113 2.235-3.719.743-5.578l-77.008-99.707c42.41-4.465 74.406-41.297 74.406-83.707 0-46.133-36.832-84.453-83.336-84.453H644.599c-2.23 0-4.09 2.234-4.09 4.465v266.004c0 2.234 1.86 4.465 4.09 4.465 2.606 0 4.465-2.231 4.465-4.465zm260.797-263.77 53.941 92.266c1.86 2.972 5.961 2.972 7.82 0l54.31-92.266c1.12-2.234.378-4.836-1.49-5.953-2.23-1.117-4.46-.371-6.32 1.488l-50.6 85.942-50.595-85.942c-1.113-1.86-3.718-2.605-5.578-1.488-2.234 1.117-2.976 3.719-1.488 5.953zm173.371-4.465-92.64 146.953c-.372 1.118-.372 1.86-.372 2.606v117.933c0 2.977 1.864 4.836 4.09 4.836 2.23 0 4.094-1.859 4.094-4.836v-116.82l92.27-146.207c1.109-1.86.738-4.465-1.493-5.953-1.86-1.117-4.469-.371-5.949 1.488zM945.576 404.046V285.738c0-.742-.371-1.488-.742-2.23l-92.637-146.954c-1.488-1.86-4.094-2.605-5.953-1.488-1.864 1.488-2.606 4.094-1.117 5.953l91.52 146.207v116.82c0 2.977 1.858 4.836 4.464 4.836 2.605 0 4.465-1.859 4.465-4.836zm0 0"/><path fill="none" stroke="#bd0014" stroke-linecap="round" stroke-miterlimit="1.5" stroke-width="6" d="M119.505 415.519S223.654 128.714 515.58 81.859"/><path fill="none" stroke="#bd0014" stroke-linecap="round" stroke-miterlimit="1.5" stroke-width="6" d="M88.263 411.304S200.627 123.07 515.58 75.98"/><path fill="#bd0014" fill-rule="evenodd" d="m583.556 0 30.422 54.257 76.68 17.278L615.736 95.3l-25.672 56.66-30.426-54.257-76.676-17.274 74.918-23.77Zm.758 17.71L565.17 59.96a8 8 0 0 1-4.868 4.325l-46.754 14.831 47.848 10.781a8 8 0 0 1 5.223 3.895l22.687 40.457 19.145-42.25a8 8 0 0 1 4.867-4.325l46.754-14.832-47.852-10.78a8 8 0 0 1-5.218-3.892zm300.27 228.137.25 42.434 32.336 27.394-42.38.293-27.398 32.399-.25-42.43-32.336-27.398 42.38-.29zm-7.872 21.7-13.418 15.867a8.02 8.02 0 0 1-6.054 2.836l-20.793.14 15.863 13.442a8 8 0 0 1 2.832 6.058l.121 20.778 13.418-15.868a8 8 0 0 1 6.055-2.832l20.793-.144-15.867-13.442a8 8 0 0 1-2.828-6.054zm-534.41-74.629 25.805 33.68 42.316 2.331-33.617 25.809-2.293 42.371-25.804-33.684-42.32-2.332 33.62-25.808zm6.817 22.05-1.121 20.75a8.01 8.01 0 0 1-3.118 5.914l-16.496 12.66 20.762 1.145a8 8 0 0 1 5.91 3.125l12.64 16.492 1.122-20.746a8.01 8.01 0 0 1 3.117-5.914l16.496-12.664-20.765-1.144a8 8 0 0 1-5.91-3.122zm0 0"/></svg>